# xmcd CD database file
#
# Track frame offsets:
#	150
#	17967
#	33092
#	57300
#	73395
#	91327
#	106562
#	130757
#	158192
#
# Disc length: 4440 seconds
#
# Revision: 0
# Processed by: cddbd v1.5PL3 Copyright (c) Steve Scherf et al.
# Submitted via: CDex 1.50
#
DISCID=6f115609
DTITLE=Hi-Timez - in my words〜言葉にできない〜
DYEAR=2004
DGENRE=Hip-Hop
TTITLE0=in my words〜言葉にできない〜
TTITLE1=Play Ya game feat. plan b
TTITLE2=steppin' to the playground
TTITLE3=ケセラセラ（blowin' in the wind）
TTITLE4=in my words〜言葉にできない〜 - instrumental
TTITLE5=Play Ya game feat. plan b - instrumental
TTITLE6=steppin' to the playground - instrumental
TTITLE7=ケセラセラ（blowin' in the wind） - instrumental
TTITLE8=CCCD
EXTD=YEAR: 2004
EXTT0=
EXTT1=
EXTT2=
EXTT3=
EXTT4=
EXTT5=
EXTT6=
EXTT7=
EXTT8=
PLAYORDER=
